<?xml version="1.0" encoding="UTF-8"?>
<svg version="1.1" xmlns="http://www.w3.org/2000/svg" width="96" height="96">
<path d="M0 0 C1.00587158 -0.0038269 2.01174316 -0.00765381 3.0480957 -0.01159668 C5.17302451 -0.01431651 7.29798676 -0.00695041 9.42285156 0.00976562 C12.67588932 0.03117359 15.92671845 0.00996568 19.1796875 -0.015625 C21.24479654 -0.01298174 23.30990421 -0.00785679 25.375 0 C26.34800049 -0.00809692 27.32100098 -0.01619385 28.32348633 -0.02453613 C35.00992812 0.06833936 35.00992812 0.06833936 38.30761719 2.32128906 C40.4000734 5.67247689 40.11256167 8.97029218 39.9375 12.78125 C39.91945312 13.52632812 39.90140625 14.27140625 39.8828125 15.0390625 C39.83585649 16.87034701 39.76411652 18.70096649 39.6875 20.53125 C40.65171875 20.48484375 41.6159375 20.4384375 42.609375 20.390625 C43.87265625 20.35453125 45.1359375 20.3184375 46.4375 20.28125 C47.69046875 20.23484375 48.9434375 20.1884375 50.234375 20.140625 C53.6875 20.53125 53.6875 20.53125 55.87890625 21.875 C58.77012116 26.12127675 58.17869354 30.40787124 58.078125 35.421875 C58.07246521 36.48162537 58.06680542 37.54137573 58.06097412 38.63323975 C58.0385924 42.01637028 57.98839098 45.39843984 57.9375 48.78125 C57.9174374 51.07550553 57.89918621 53.36977767 57.8828125 55.6640625 C57.8387218 61.28682003 57.77179136 66.90895921 57.6875 72.53125 C56.62263145 71.63823344 55.56074959 70.7416553 54.5 69.84375 C53.5327726 69.02861183 53.5327726 69.02861183 52.54600525 68.19700623 C50.6875 66.53125 50.6875 66.53125 48.26391602 63.69165039 C44.78476202 60.77427773 41.8021961 60.86941832 37.46484375 60.96484375 C36.29109947 60.95639183 36.29109947 60.95639183 35.09364319 60.94776917 C32.60348015 60.9313572 30.11510056 60.94683307 27.625 60.96875 C25.1314982 60.9853557 22.63916508 60.99443344 20.14564514 60.97901917 C18.5974948 60.96975275 17.04909685 60.97886005 15.50120544 61.00865173 C12.04223979 60.99106893 10.04922631 60.79132421 7.20629883 58.74731445 C4.92842187 55.42368655 5.25975685 52.15058157 5.4375 48.28125 C5.45554687 47.53617188 5.47359375 46.79109375 5.4921875 46.0234375 C5.53914351 44.19215299 5.61088348 42.36153351 5.6875 40.53125 C0.69342509 40.24856651 -1.37515119 40.73064969 -5.2578125 44.046875 C-7.26082054 46.03165908 -9.18078081 48.08529464 -11.08984375 50.16015625 C-11.82332031 50.94261719 -12.55679687 51.72507813 -13.3125 52.53125 C-13.6425 52.53125 -13.9725 52.53125 -14.3125 52.53125 C-14.41388675 45.76868488 -14.48395971 39.00631561 -14.53222656 32.24316406 C-14.55234688 29.94230831 -14.57964634 27.64150371 -14.61425781 25.34082031 C-14.66275612 22.03437683 -14.68546478 18.72860915 -14.703125 15.421875 C-14.72377014 14.39257874 -14.74441528 13.36328247 -14.76568604 12.30279541 C-14.76785532 5.40490058 -14.76785532 5.40490058 -12.93261719 1.88378906 C-8.7375309 -0.28176983 -4.65341468 -0.03872387 0 0 Z " fill="#2095F2" transform="translate(26.3125,11.46875)"/>
<path d="M0 0 C2.24893954 -0.10823773 4.49937575 -0.18569645 6.75 -0.25 C8.00296875 -0.29640625 9.2559375 -0.3428125 10.546875 -0.390625 C14 0 14 0 16.19140625 1.34375 C19.08262116 5.59002675 18.49119354 9.87662124 18.390625 14.890625 C18.38496521 15.95037537 18.37930542 17.01012573 18.37347412 18.10198975 C18.3510924 21.48512028 18.30089098 24.86718984 18.25 28.25 C18.2299374 30.54425553 18.21168621 32.83852767 18.1953125 35.1328125 C18.1512218 40.75557003 18.08429136 46.37770921 18 52 C16.93513145 51.10698344 15.87324959 50.2104053 14.8125 49.3125 C14.16768173 48.76907455 13.52286346 48.22564911 12.85850525 47.66575623 C11 46 11 46 8.57641602 43.16040039 C5.09726202 40.24302773 2.1146961 40.33816832 -2.22265625 40.43359375 C-3.39640053 40.42514183 -3.39640053 40.42514183 -4.59385681 40.41651917 C-7.08401985 40.4001072 -9.57239944 40.41558307 -12.0625 40.4375 C-14.5560018 40.4541057 -17.04833492 40.46318344 -19.54185486 40.44776917 C-21.0900052 40.43850275 -22.63840315 40.44761005 -24.18629456 40.47740173 C-27.64526021 40.45981893 -29.63827369 40.26007421 -32.48120117 38.21606445 C-34.75907813 34.89243655 -34.42774315 31.61933157 -34.25 27.75 C-34.23195313 27.00492188 -34.21390625 26.25984375 -34.1953125 25.4921875 C-34.14835649 23.66090299 -34.07661652 21.83028351 -34 20 C-33.17274414 19.98018066 -32.34548828 19.96036133 -31.49316406 19.93994141 C-27.74512194 19.84468788 -23.99763683 19.73500891 -20.25 19.625 C-18.94804688 19.5940625 -17.64609375 19.563125 -16.3046875 19.53125 C-14.42910156 19.47324219 -14.42910156 19.47324219 -12.515625 19.4140625 C-10.78747559 19.36693115 -10.78747559 19.36693115 -9.02441406 19.31884766 C-6.11447898 19.0120689 -4.38247997 18.67195276 -2 17 C-0.84429296 13.53287889 -0.67164707 10.4585044 -0.4375 6.8125 C-0.35371094 5.54019531 -0.26992187 4.26789062 -0.18359375 2.95703125 C-0.09271484 1.49330078 -0.09271484 1.49330078 0 0 Z " fill="#1464C0" transform="translate(66,32)"/>
</svg>
